# File created by Blade
# Date/Time:  Thu Jan 22 16:36:26 2015
# Frame Rate: 120.000 fps
#------------------------------------------------------
:FULLY-SPECIFIED
:DEGREES
1195
root 1.987533 3.388580 -11.695928 -67.395094 6.126425 4.184258
RightUpLeg -21.211501 8.786477 -9.760667
RightLeg 1.787857 -0.000000 -0.000000
RightFoot 2.777554 -32.743763 29.114082
RightToeBase 8.212946 -0.000000 -0.000000
LeftUpLeg -119.013559 26.867626 -44.825811
LeftLeg 138.776406 -0.000000 -0.000000
LeftFoot 32.524093 -5.078605 -59.102235
LeftToeBase -4.090494 -0.000000 0.000000
Spine 70.642881 10.063525 -4.018623
RightShoulder 17.502293 -7.792351 -22.247679
RightArm 32.016038 -5.728197 87.652389
RightForeArm 58.888385 -0.000000 82.480183
RightHand -1.788407 -0.000000 -25.197260
RightHandThumb1 -24.326973 -0.000000 -32.862282
LeftShoulder -0.608377 22.526589 37.218210
LeftArm 84.092391 21.601310 -76.764859
LeftForeArm 19.304839 -0.000000 47.923024
LeftHand -23.678335 -0.000000 -14.504798
LeftHandThumb1 -26.253704 0.000000 33.147579
Head 12.688598 1.374494 10.017201
1196
root 2.005014 3.367887 -11.684148 -67.170105 6.221121 4.147029
RightUpLeg -21.501960 8.663282 -9.893994
RightLeg 1.892208 -0.000000 -0.000000
RightFoot 2.722894 -32.651715 29.084087
RightToeBase 8.123527 -0.000000 -0.000000
LeftUpLeg -118.849377 26.695186 -44.761890
LeftLeg 138.561960 -0.000000 -0.000000
LeftFoot 32.400146 -5.165977 -59.065947
LeftToeBase -4.342022 -0.000000 0.000000
Spine 70.338410 9.976922 -4.110984
RightShoulder 17.553375 -7.731767 -22.178986
RightArm 32.241987 -5.754409 87.416945
RightForeArm 58.827271 -0.000000 81.925655
RightHand -1.427572 -0.000000 -25.125801
RightHandThumb1 -24.326973 -0.000000 -32.862282
LeftShoulder -0.430713 22.261739 37.215786
LeftArm 83.987340 21.527192 -76.902181
LeftForeArm 19.170652 -0.000000 47.291983
LeftHand -23.720541 0.000000 -14.339075
LeftHandThumb1 -26.253704 0.000000 33.147579
Head 12.626161 1.364048 10.044746
1197
root 2.023473 3.343149 -11.671109 -66.930901 6.266935 4.038416
RightUpLeg -21.793210 8.483046 -9.951580
RightLeg 1.973438 -0.000000 -0.000000
RightFoot 2.695465 -32.558036 29.029122
RightToeBase 8.109143 -0.000000 -0.000000
LeftUpLeg -118.734115 26.394489 -44.673217
LeftLeg 138.332879 -0.000000 -0.000000
LeftFoot 32.074153 -5.102463 -58.924617
LeftToeBase -4.103790 -0.000000 0.000000
Spine 69.999813 9.792388 -4.139449
RightShoulder 17.626571 -7.698055 -22.163880
RightArm 32.397709 -5.651768 87.277103
RightForeArm 58.670714 0.000000 81.391597
RightHand -1.497591 0.000000 -24.150180
RightHandThumb1 -24.326973 -0.000000 -32.862282
LeftShoulder -0.268696 22.116496 37.141132
LeftArm 83.987736 21.442404 -77.037272
LeftForeArm 19.213371 -0.000000 46.636545
LeftHand -23.803784 0.000000 -14.237096
LeftHandThumb1 -26.253704 0.000000 33.147579
Head 12.583360 1.397871 10.022954
1198
root 2.024180 3.334684 -11.661916 -66.806857 6.271459 4.085063
RightUpLeg -21.960374 8.565558 -10.012378
RightLeg 2.026712 -0.000000 -0.000000
RightFoot 2.644003 -32.569791 29.024302
RightToeBase 8.041530 -0.000000 -0.000000
LeftUpLeg -118.576581 26.471999 -44.517861
LeftLeg 138.164466 -0.000000 -0.000000
LeftFoot 31.915288 -5.196382 -58.860057
LeftToeBase -4.045316 -0.000000 0.000000
Spine 69.834419 9.864824 -4.193608
RightShoulder 17.660817 -7.614650 -22.071645
RightArm 32.621409 -5.621716 87.085602
RightForeArm 58.596093 0.000000 80.776948
RightHand -1.346207 -0.000000 -23.666757
RightHandThumb1 -24.326973 -0.000000 -32.862282
LeftShoulder -0.129806 21.941961 37.166181
LeftArm 84.034659 21.322984 -77.086507
LeftForeArm 19.199524 -0.000000 45.970391
LeftHand -23.511325 -0.000000 -13.988099
LeftHandThumb1 -26.253704 0.000000 33.147579
Head 12.459609 1.422520 10.136030
1199
root 2.032825 3.315765 -11.648899 -66.601962 6.299084 4.065825
RightUpLeg -22.225674 8.534274 -10.085150
RightLeg 2.115029 -0.000000 -0.000000
RightFoot 2.557582 -32.523116 29.056793
RightToeBase 7.948327 -0.000000 -0.000000
LeftUpLeg -118.435044 26.378161 -44.384201
LeftLeg 137.945329 -0.000000 -0.000000
LeftFoot 31.809478 -5.291663 -58.661385
LeftToeBase -4.304946 -0.000000 0.000000
Spine 69.540995 9.823644 -4.291080
RightShoulder 17.707227 -7.536657 -21.979742
RightArm 32.843497 -5.631723 86.856408
RightForeArm 58.586464 -0.000000 80.147129
RightHand -1.237293 -0.000000 -23.307691
RightHandThumb1 -24.326973 -0.000000 -32.862282
LeftShoulder -0.018023 21.809331 37.170774
LeftArm 84.100449 21.230069 -77.123182
LeftForeArm 19.363925 -0.000000 45.308588
LeftHand -23.493528 -0.000000 -13.633948
LeftHandThumb1 -26.253704 0.000000 33.147579
Head 12.406500 1.443791 10.193458
1200
root 2.054826 3.283553 -11.634213 -66.282167 6.368112 3.959074
RightUpLeg -22.621216 8.315826 -10.171199
RightLeg 2.229480 -0.000000 -0.000000
RightFoot 2.464884 -32.440909 29.071243
RightToeBase 8.064064 -0.000000 -0.000000
LeftUpLeg -118.326082 26.016877 -44.284872
LeftLeg 137.714847 -0.000000 -0.000000
LeftFoot 31.543467 -5.202475 -58.648249
LeftToeBase -4.303967 -0.000000 0.000000
Spine 69.075192 9.617253 -4.403961
RightShoulder 17.789559 -7.525235 -21.919431
RightArm 33.077150 -5.624948 86.652542
RightForeArm 58.660457 -0.000000 79.454288
RightHand -1.154700 0.000000 -22.717072
RightHandThumb1 -24.326973 -0.000000 -32.862282
LeftShoulder 0.113905 21.695103 37.105458
LeftArm 84.187425 21.120342 -77.016836
LeftForeArm 19.515297 -0.000000 44.655883
LeftHand -23.605837 -0.000000 -13.301194
LeftHandThumb1 -26.253704 0.000000 33.147579
Head 12.461587 1.454919 10.171420
1201
root 2.070220 3.270058 -11.626062 -66.146173 6.440021 3.819234
RightUpLeg -22.767630 8.125053 -10.222383
RightLeg 2.290858 -0.000000 -0.000000
RightFoot 2.482771 -32.316467 28.996457
RightToeBase 8.029057 -0.000000 -0.000000
LeftUpLeg -117.980003 25.862626 -44.019361
LeftLeg 137.453427 -0.000000 -0.000000
LeftFoot 31.510262 -5.195898 -58.641407
LeftToeBase -4.199071 -0.000000 0.000000
Spine 68.862717 9.397459 -4.488704
RightShoulder 17.880623 -7.423114 -21.878647
RightArm 33.294510 -5.612530 86.408978
RightForeArm 58.870876 -0.000000 78.731094
RightHand -1.008670 -0.000000 -21.978457
RightHandThumb1 -24.326973 -0.000000 -32.862282
LeftShoulder 0.209726 21.530674 37.056883
LeftArm 84.228800 20.991520 -76.986498
LeftForeArm 19.706838 -0.000000 44.046465
LeftHand -23.532287 -0.000000 -13.083286
LeftHandThumb1 -26.253704 0.000000 33.147579
Head 12.414195 1.504558 10.171013
